<svg width="192" height="192" viewBox="0 0 192 192" fill="none" xmlns="http://www.w3.org/2000/svg">
<path d="M139.604 111.683C137.269 119.808 132.64 127.086 126.273 132.647C119.906 138.207 112.071 141.814 103.706 143.034C97.1646 143.983 90.4991 143.601 84.1094 141.91C77.7196 140.219 71.7375 137.254 66.5222 133.193C61.3068 129.133 56.9657 124.06 53.7595 118.28C50.5532 112.5 48.548 106.132 47.8642 99.5577C47.3344 92.9576 48.1798 86.3195 50.3469 80.0629C52.514 73.8063 55.9556 68.0673 60.4541 63.2089C64.9526 58.3505 70.4103 54.4783 76.4819 51.837C82.5536 49.1958 89.1072 47.843 95.7284 47.8643C101.933 47.873 108.079 49.0643 113.837 51.3743C114.744 51.7814 115.77 51.8353 116.714 51.5254C117.659 51.2155 118.453 50.5642 118.943 49.6991L130.43 28.559C130.677 28.0721 130.826 27.5411 130.868 26.9966C130.909 26.4521 130.843 25.9047 130.672 25.3859C130.502 24.8671 130.231 24.387 129.874 23.9733C129.518 23.5595 129.083 23.2202 128.595 22.9748C116.26 17.39 102.706 15.0369 89.2102 16.1372C75.7143 17.2375 62.7206 21.755 51.4528 29.2641C40.1851 36.7733 31.0141 47.027 24.8038 59.0596C18.5935 71.0921 15.5482 84.5074 15.9547 98.042C16.7408 118.144 25.004 137.229 39.1256 151.557C53.2472 165.885 72.2095 174.424 92.2982 175.502C113.342 176.436 133.901 169.008 149.488 154.84C165.076 140.672 174.428 120.914 175.502 99.8768C175.502 98.2813 175.502 89.1073 175.502 83.922C175.482 82.8705 175.055 81.8678 174.311 81.1242C173.568 80.3805 172.565 79.9537 171.514 79.9333H99.7171C98.6593 79.9333 97.6447 80.3536 96.8967 81.1016C96.1487 81.8496 95.7284 82.8641 95.7284 83.922V107.854C95.7284 108.912 96.1487 109.927 96.8967 110.675C97.6447 111.423 98.6593 111.843 99.7171 111.843H139.604" fill="#1A1A1A"/>
</svg>
