<svg width="192" height="192" viewBox="0 0 192 192" fill="none" xmlns="http://www.w3.org/2000/svg">
<path d="M135.615 27.9208C135.615 26.8629 135.195 25.8484 134.447 25.1004C133.699 24.3524 132.685 23.9321 131.627 23.9321H111.683C101.641 23.4319 91.8084 26.9268 84.3346 33.6532C76.8608 40.3796 72.3531 49.7908 71.7964 59.8303V81.3692H51.8529C50.7951 81.3692 49.7805 81.7895 49.0325 82.5375C48.2845 83.2855 47.8643 84.3001 47.8643 85.3579V106.099C47.8643 107.157 48.2845 108.172 49.0325 108.92C49.7805 109.668 50.7951 110.088 51.8529 110.088H71.7964V163.536C71.7964 164.594 72.2166 165.609 72.9646 166.357C73.7127 167.105 74.7272 167.525 75.7851 167.525H99.7172C100.775 167.525 101.79 167.105 102.538 166.357C103.286 165.609 103.706 164.594 103.706 163.536V110.088H124.607C125.494 110.101 126.36 109.817 127.068 109.283C127.775 108.748 128.285 107.993 128.516 107.136L134.259 86.395C134.418 85.8056 134.439 85.1877 134.322 84.5888C134.204 83.9899 133.95 83.426 133.58 82.9405C133.211 82.4551 132.734 82.0609 132.188 81.7885C131.642 81.5161 131.04 81.3727 130.43 81.3692H103.706V59.8303C103.904 57.8557 104.832 56.026 106.307 54.6984C107.782 53.3708 109.699 52.6407 111.683 52.6507H131.627C132.685 52.6507 133.699 52.2304 134.447 51.4824C135.195 50.7344 135.615 49.7199 135.615 48.662V27.9208Z" fill="white"/>
</svg>
